# xmcd
# 
# Track frame offsets:
#     150
#     29050
#     51719
#     78247
#     96807
#     107626
#     121974
#     143410
#     164395
#     173597
#     196106
#     239155
# 
# Disc length: 3834
# 
# Revision: 2
# Processed by: cddbd v1.5.2PL0 Copyright (c) Steve Scherf et al.
# Submitted via: fre:ac v1.0.27
# 
DISCID=a00ef80c
DTITLE=Christian Scott Atunde Adjuah - The Emancipation Procrastination
DYEAR=2017
DGENRE=Jazz
TTITLE0=The Emancipation Procrastination
TTITLE1=AvengHer
TTITLE2=Ruler Rebel [X. aTunde Adjuah Remix]
TTITLE3=Ashes of Our Forever
TTITLE4=In the Beginning [Feat. Weedie Braimah]
TTITLE5=Michele with one L
TTITLE6=The Cypher
TTITLE7=Videotape
TTITLE8=Gerrymandering Game
TTITLE9=Unrigging November
TTITLE10=Cages [Feat. Stephen J. Gladney]
TTITLE11=New Heroes
EXTD=YEAR: 2017
EXTT0=
EXTT1=
EXTT2=
EXTT3=
EXTT4=
EXTT5=
EXTT6=
EXTT7=
EXTT8=
EXTT9=
EXTT10=
EXTT11=
PLAYORDER=
